<svg id="Layer_1" data-name="Layer 1" xmlns="http://www.w3.org/2000/svg" viewBox="0 0 388.8 53.86"><defs><style>.cls-1{fill:#fff;}</style></defs><title>404-error</title><path class="cls-1" d="M35.86,40.68H29.38v12H21.6v-12H0V32.54L21.6,2.23h7.78v32h6.48ZM6.34,34.2H21.6V12h-.14Z"/><path class="cls-1" d="M58.32,1.22a14.62,14.62,0,0,1,8.82,2.49A17.05,17.05,0,0,1,72.47,10a28.5,28.5,0,0,1,2.59,8.46,59,59,0,0,1,0,17.86,28.5,28.5,0,0,1-2.59,8.46,17.09,17.09,0,0,1-5.33,6.34,14.68,14.68,0,0,1-8.82,2.48,14.68,14.68,0,0,1-8.82-2.48,17.09,17.09,0,0,1-5.33-6.34,28.5,28.5,0,0,1-2.59-8.46,59,59,0,0,1,0-17.86A28.5,28.5,0,0,1,44.17,10,17.05,17.05,0,0,1,49.5,3.71,14.62,14.62,0,0,1,58.32,1.22Zm0,45.58a6.6,6.6,0,0,0,4.46-1.55,10.51,10.51,0,0,0,2.85-4.17,25,25,0,0,0,1.47-6.16,61.23,61.23,0,0,0,.44-7.49A60.33,60.33,0,0,0,67.1,20a25.42,25.42,0,0,0-1.47-6.16,10.53,10.53,0,0,0-2.85-4.21,7.25,7.25,0,0,0-9,0A10.67,10.67,0,0,0,51,13.82,25.42,25.42,0,0,0,49.54,20a60.33,60.33,0,0,0-.44,7.45,61.23,61.23,0,0,0,.44,7.49A25,25,0,0,0,51,41.08a10.66,10.66,0,0,0,2.81,4.17A6.6,6.6,0,0,0,58.32,46.8Z"/><path class="cls-1" d="M115.92,40.68h-6.48v12h-7.78v-12H80.06V32.54l21.6-30.31h7.78v32h6.48ZM86.4,34.2h15.26V12h-.14Z"/><path class="cls-1" d="M143.86,1.22h37V9h-28V22.46h25.92v7.35H152.86V44.86h28.51v7.77H143.86Z"/><path class="cls-1" d="M189.21,1.22h24.56q8.49,0,12.74,3.68t4.25,10.22a14.87,14.87,0,0,1-1.08,6.08,13.21,13.21,0,0,1-2.52,3.89,9.87,9.87,0,0,1-2.85,2.13,21.45,21.45,0,0,1-2.05.86v.14a9.52,9.52,0,0,1,2.49.72,7.51,7.51,0,0,1,2.48,1.84,10,10,0,0,1,1.91,3.28,14.54,14.54,0,0,1,.76,5,45.24,45.24,0,0,0,.68,8.24,10.77,10.77,0,0,0,2.12,5.29h-9.65A8.41,8.41,0,0,1,221.87,49c-.12-1.34-.18-2.64-.18-3.89a36.69,36.69,0,0,0-.44-6.08,10.45,10.45,0,0,0-1.58-4.25,6.64,6.64,0,0,0-3.13-2.48,13.76,13.76,0,0,0-5.08-.8H198.21V52.63h-9Zm9,23.4H213c2.87,0,5.06-.68,6.55-2.05s2.23-3.42,2.23-6.15a9.51,9.51,0,0,0-.72-4,5.79,5.79,0,0,0-2-2.41,7.19,7.19,0,0,0-2.88-1.15,18.39,18.39,0,0,0-3.35-.29H198.21Z"/><path class="cls-1" d="M239.9,1.22h24.56q8.49,0,12.74,3.68t4.25,10.22a14.87,14.87,0,0,1-1.08,6.08,13.21,13.21,0,0,1-2.52,3.89A9.87,9.87,0,0,1,275,27.22a21.45,21.45,0,0,1-2.05.86v.14a9.52,9.52,0,0,1,2.49.72,7.51,7.51,0,0,1,2.48,1.84,10,10,0,0,1,1.91,3.28,14.55,14.55,0,0,1,.75,5,45.19,45.19,0,0,0,.69,8.24,10.77,10.77,0,0,0,2.12,5.29h-9.65A8.28,8.28,0,0,1,272.56,49c-.12-1.34-.18-2.64-.18-3.89a36.69,36.69,0,0,0-.44-6.08,10.59,10.59,0,0,0-1.58-4.25,6.64,6.64,0,0,0-3.13-2.48,13.8,13.8,0,0,0-5.08-.8H248.9V52.63h-9Zm9,23.4h14.76q4.32,0,6.56-2.05c1.48-1.37,2.23-3.42,2.23-6.15a9.51,9.51,0,0,0-.72-4,5.79,5.79,0,0,0-2-2.41,7.19,7.19,0,0,0-2.88-1.15,18.39,18.39,0,0,0-3.35-.29H248.9Z"/><path class="cls-1" d="M312.48,0a23.9,23.9,0,0,1,10.33,2.16A23.06,23.06,0,0,1,330.55,8a26.07,26.07,0,0,1,4.86,8.57,31.45,31.45,0,0,1,1.69,10.37,31.74,31.74,0,0,1-1.69,10.44,26.07,26.07,0,0,1-4.86,8.57,22.7,22.7,0,0,1-7.74,5.79,26.11,26.11,0,0,1-20.66,0,22.7,22.7,0,0,1-7.74-5.79,25.72,25.72,0,0,1-4.86-8.57,31.74,31.74,0,0,1-1.7-10.44,31.46,31.46,0,0,1,1.7-10.37A25.72,25.72,0,0,1,294.41,8a23.06,23.06,0,0,1,7.74-5.83A23.86,23.86,0,0,1,312.48,0Zm0,7.34A14.43,14.43,0,0,0,305.39,9a13.72,13.72,0,0,0-4.86,4.43,20,20,0,0,0-2.78,6.3,29.25,29.25,0,0,0,0,14.4,20,20,0,0,0,2.78,6.3,13.81,13.81,0,0,0,4.86,4.43,16.06,16.06,0,0,0,14.18,0,14,14,0,0,0,4.86-4.43,20,20,0,0,0,2.77-6.3,29.25,29.25,0,0,0,0-14.4,20,20,0,0,0-2.77-6.3A13.89,13.89,0,0,0,319.57,9,14.46,14.46,0,0,0,312.48,7.34Z"/><path class="cls-1" d="M345.31,1.22h24.55c5.67,0,9.91,1.23,12.75,3.68s4.24,5.85,4.24,10.22a14.87,14.87,0,0,1-1.08,6.08,13.21,13.21,0,0,1-2.52,3.89,9.84,9.84,0,0,1-2.84,2.13c-.94.43-1.62.72-2.05.86v.14a9.46,9.46,0,0,1,2.48.72,7.44,7.44,0,0,1,2.49,1.84,10,10,0,0,1,1.9,3.28,14.3,14.3,0,0,1,.76,5,46.15,46.15,0,0,0,.68,8.24,10.86,10.86,0,0,0,2.13,5.29h-9.65A8.42,8.42,0,0,1,378,49c-.12-1.34-.18-2.64-.18-3.89a36.79,36.79,0,0,0-.43-6.08,10.74,10.74,0,0,0-1.58-4.25,6.66,6.66,0,0,0-3.14-2.48,13.74,13.74,0,0,0-5.07-.8H354.31V52.63h-9Zm9,23.4h14.76q4.32,0,6.55-2.05t2.23-6.15a9.51,9.51,0,0,0-.72-4,5.79,5.79,0,0,0-2-2.41,7.19,7.19,0,0,0-2.88-1.15,18.28,18.28,0,0,0-3.34-.29H354.31Z"/></svg>